<?xml version="1.0" encoding="UTF-8"?>
<svg id="Layer_2" xmlns="http://www.w3.org/2000/svg" viewBox="0 0 1132.84 314.39" width="1132.84" height="314.39">
  <defs>
    <style>.cls-1{fill:#fff;}.cls-2{fill:#1176d6;}.cls-3{fill:#09349d;}.cls-4{fill:#0957be;}.cls-5{fill:#2fb1e6;}.cls-6{fill:#52daf2;}.cls-l{fill:#09349d;}</style>
  </defs>
  <g id="Logo_1">
    <path class="cls-l" d="m259.87,181.06v63.42h-33.29c-.1-1.56-.28-3.11-.28-4.67-.02-28.58-.02-57.16-.02-85.74,0-13.98-.08-27.96.05-41.94.04-4.72.29-9.5,1.05-14.15,2.38-14.49,10.71-22.5,25.29-24.49,4.06-.56,8.19-.81,12.3-.84,11.11-.08,22.23-.2,33.34.14,13.15.41,24.94,4.62,34.63,13.85,8.92,8.49,14.15,18.88,15.79,31.06,1.28,9.5,1.16,18.95-2.15,28.08-4.59,12.65-12.88,22.06-25.08,27.93-.98.47-1.92,1.03-3.19,1.72,12.73,23.02,25.33,45.78,37.97,68.62-3.08.81-32.06,1.07-38.62.42-1-1.82-2.1-3.77-3.14-5.74-9.59-18.22-19.22-36.42-28.71-54.69-1.27-2.45-2.77-3.38-5.51-3.28-5.49.2-10.99.05-16.48.07-1.1,0-2.2.14-3.94.25v-.02Zm.28-28.39c11.21,0,21.92.16,32.63-.07,5.04-.11,9.83-1.67,13.75-5.11,8.65-7.61,11.07-17.13,8.29-28.08-2.26-8.93-9.67-15.82-18.69-16.51-7.93-.6-15.95-.51-23.9-.15-6.88.31-10.88,4.38-12.05,11.16-.21,1.22-.24,2.48-.24,3.72-.02,10.34-.02,20.69,0,31.03,0,1.22.13,2.44.21,4.02h0Z" />
    <path class="cls-l" d="m440.93,72.79c1.05-.07,1.91-.19,2.77-.19,23.1.04,46.21-.26,69.3.26,14.72.33,27.85,5.36,37.91,16.78,5.59,6.34,9.07,13.76,10.81,21.93,3.01,14.12,3.06,28.28-.92,42.24-5.15,18.06-17.26,29.04-35.33,33.55-6.19,1.54-12.53,2.14-18.93,2.13-9.24-.02-18.48,0-27.72,0h-4.56c-.47,3.73-.18,7.31-.23,10.86-.05,3.62-.01,7.24-.01,10.86v32.85c-2.89.82-28.66,1-32.96.29-.82-2.72-1.01-167-.13-171.55h0Zm33.26,86.03c.68.28.9.46,1.13.46,11.84-.15,23.73.23,35.52-.65,9.12-.68,15.68-6.06,18-15.46,2.01-8.14,2.01-16.34-.16-24.43-2.6-9.71-9.91-15.61-20.15-15.98-10.72-.38-21.45-.27-32.18-.34-.69,0-1.38.32-2.15.51v55.9h-.01Z" />
    <path class="cls-l" d="m34.57,244.52H0c.56-1.94.96-3.57,1.51-5.16,8.14-23.32,16.29-46.63,24.45-69.94,9.35-26.73,18.65-53.47,28.09-80.16,1.11-3.14,2.72-6.17,4.51-8.99,3.15-4.99,7.88-7.48,13.81-7.6,1.25-.02,2.5-.02,3.74.02,5.43.18,9.64,2.55,12.21,7.33,1.59,2.95,2.92,6.08,4.03,9.25,16.09,45.91,32.12,91.83,48.17,137.75,1.97,5.63,3.93,11.26,6,17.2-1.08.2-1.88.47-2.68.47-9.74.03-19.48.03-29.22,0-2.96,0-3-.04-3.93-2.87-2.56-7.82-5.08-15.66-7.64-23.48-1.16-3.54-1.18-3.56-4.97-3.56-16.73,0-33.46,0-50.19,0-3.67,0-3.68.03-4.85,3.67-2.5,7.84-4.98,15.69-7.48,23.54-.26.82-.64,1.6-1.01,2.51h.02Zm39.92-124.11c-.38-.02-.76-.03-1.14-.05-3.41,10.88-6.87,21.75-10.21,32.65-3.38,11-7.07,21.91-10.17,33.07,5.06.77,38.04.58,40.99-.25-6.49-21.81-12.98-43.62-19.48-65.42h0Z" />
    <path class="cls-l" d="m777.11,244.44c-1.33.12-2.29.27-3.24.27-9.36.02-18.73.02-28.09,0-3.37,0-3.4-.02-4.44-3.2-2.61-7.94-5.23-15.87-7.75-23.84-.6-1.89-1.4-2.93-3.61-2.92-17.73.08-35.46.05-53.19.07-.49,0-.97.13-1.74.24-.44,1.2-.96,2.45-1.37,3.72-2.43,7.6-4.82,15.22-7.26,22.82-.98,3.07-1.02,3.1-4.13,3.1-9.49.02-18.98.02-28.47,0-.94,0-1.88-.2-3.18-.35.5-1.61.86-2.9,1.3-4.16,17.56-50.28,35.11-100.56,52.75-150.81,1.14-3.26,2.84-6.39,4.71-9.31,3.1-4.84,7.75-7.26,13.53-7.4,1.5-.04,3-.05,4.49.05,4.79.32,8.72,2.35,11.12,6.55,1.66,2.91,3.1,6,4.2,9.15,17.79,50.73,35.51,101.48,53.24,152.22.4,1.14.68,2.31,1.1,3.77l.03.03Zm-93.56-58.41c4.76.82,38.07.63,40.68-.13-.37-4.12-18.18-63.25-20.06-65.94-6.91,22.14-13.71,43.93-20.62,66.07Z" />
    <path class="cls-4" d="m1102.27,56.38l-.18-.1-8.5-4.92-74-42.82-.91-.52c-18.47-10.69-41.05-10.69-59.52,0l-.91.53-2.51,1.45-3.96,2.29c30.94,16.54,130.16,77,141.84,177.54,9.81-8.6,19.7-17.86,29.58-27.82l9.62-9.93v-42.69c0-21.86-11.65-42.05-30.56-53h.01Z" />
    <path class="cls-2" d="m1094.75,209.8c.02-6.82-.36-13.48-1.11-19.97-75.79,66.42-146.45,93.21-164.66,99.38l29.28,16.95c15.45,8.94,33.84,10.6,50.38,4.98,23.86-21.82,55.61-55.32,86.11-101.33h0Z" />
    <path class="cls-5" d="m1085.04,268.29c6.71-20.68,9.67-40.18,9.71-58.49-30.5,46.01-62.26,79.51-86.11,101.33,3.77-1.28,7.45-2.94,10.97-4.98l65.43-37.87h0Z" />
    <path class="cls-5" d="m1093.64,189.83c.75,6.49,1.13,13.15,1.11,19.97,9.72-14.65,28.91-40.5,38.08-57.71-9.88,9.96-29.38,29.14-39.19,37.74Z" />
    <path class="cls-6" d="m1132.83,152.09h0c-8.27,15.53-24.69,38.08-34.96,53.1-1.89,2.85-3.06,4.59-3.11,4.61-.04,18.31-3,37.81-9.71,58.49l17.05-9.87c18.99-10.99,30.74-31.61,30.74-53.96v-52.39s0,0-.01.02h0Z" />
    <path class="cls-3" d="m951.8,12.28l-76.2,44.1c-18.92,10.95-30.56,31.15-30.56,53v95.93c0,21.86,11.65,42.05,30.56,53l53.38,30.89c18.21-6.17,88.87-32.96,164.66-99.38-11.68-100.55-110.9-161.01-141.84-177.54Z" />
    <path class="cls-1" d="m963.71,132.93h50.46v-51.8c0-1-.02-2,.01-3,.14-4.79,2.35-7,7.23-7.1,3.37-.07,6.74-.06,10.12-.06,9.24,0,18.49-.04,27.73,0,5.98.02,8.33,2.4,8.32,8.45-.02,40.95-.11,81.89-.06,122.84.01,10.58.45,21.16.68,31.75.02,1.12.05,2.25-.04,3.37-.34,3.99-3.33,7.05-7.36,7.08-13.11.1-26.23.09-39.34,0-3.62-.02-7.02-3.61-7.25-7.27-.09-1.49-.03-3-.03-4.49v-52.59h-50.21c-.08,1.38-.23,2.81-.24,4.24-.02,16.48-.17,32.96.07,49.44.09,6.36-1.87,10.47-10.28,10.29-11.36-.24-22.73-.04-34.1-.07-6.34,0-8.91-2.55-8.91-8.84-.01-51.93,0-103.87,0-155.8,0-.62-.02-1.25.03-1.87.36-4.05,2.7-6.39,6.81-6.45,6.62-.1,13.24-.04,19.86-.04,6.24,0,12.49-.03,18.73.01,5.52.04,7.66,2.16,7.76,7.75.08,4.87.02,9.74.02,14.61v39.54h0Z" />
  </g>
</svg>
