<?xml version="1.0" encoding="utf-8"?>
<!-- Generator: Adobe Illustrator 28.3.0, SVG Export Plug-In . SVG Version: 6.00 Build 0)  -->
<svg version="1.1" id="Layer_1" xmlns="http://www.w3.org/2000/svg" xmlns:xlink="http://www.w3.org/1999/xlink" x="0px" y="0px"
	 viewBox="0 0 621.8 122.2" style="enable-background:new 0 0 621.8 122.2;" xml:space="preserve">
<style type="text/css">
	.st0{fill:#2590EB;}
</style>
<g>
	<path d="M145,85.4h6.6l5.7-11c1.1-2.1,2.3-3.7,3.5-4.6c1.2-1,2.7-1.5,4.4-1.8v-0.7c-6.1-0.4-10.7-2.4-13.7-6.1
		c-3.1-3.7-4.6-8.8-4.6-15.3c0-3.6,0.5-6.8,1.6-9.7s2.7-5.4,4.7-7.5s4.4-3.7,7.3-4.8c2.9-1.1,6.1-1.7,9.7-1.7H200v76.7h-16.6V69.6
		h-5.6l-10.4,20.1c-1,1.8-1.9,3.2-2.8,4.4c-0.9,1.2-1.9,2.2-3,2.9c-1.1,0.7-2.3,1.2-3.5,1.5s-2.7,0.4-4.3,0.4H145V85.4L145,85.4
		L145,85.4z M183.4,35.2h-10.2c-6.1,0-9.1,2.7-9.1,8.1v5.4c0,5.4,3,8.1,9.1,8.1h10.2C183.4,56.8,183.4,35.2,183.4,35.2z"/>
</g>
<g>
	<path d="M239.1,100.2c-9.5,0-16.7-2.6-21.6-7.9c-4.9-5.3-7.4-12.5-7.4-21.5c0-4.6,0.6-8.8,1.9-12.5c1.3-3.7,3.1-6.8,5.5-9.4
		c2.4-2.6,5.3-4.6,8.7-5.9c3.4-1.4,7.2-2,11.5-2s8.1,0.7,11.4,2c3.4,1.4,6.2,3.3,8.6,5.8c2.3,2.5,4.2,5.5,5.4,9.1
		c1.3,3.6,1.9,7.5,1.9,11.9v4.8h-38.8v1c0,3.7,1.1,6.6,3.4,8.8c2.3,2.2,5.6,3.4,10,3.4c3.4,0,6.3-0.6,8.7-1.9s4.5-3,6.3-5.1l8.8,9.6
		c-2.2,2.7-5.3,5.1-9.2,7C250.2,99.2,245.2,100.2,239.1,100.2L239.1,100.2z M237.8,52.5c-3.5,0-6.3,1.1-8.4,3.2
		c-2.1,2.2-3.1,5.1-3.1,8.7v0.9h22.9v-0.9c0-3.7-1-6.7-3-8.8C244.1,53.6,241.3,52.5,237.8,52.5z"/>
	<path d="M289.4,98.9l-20.3-56.7h17.1l7.4,24.3l5.4,18.9h0.9l5.4-18.9l7.4-24.3h16.5l-20.3,56.7H289.4z"/>
</g>
<g>
	<path d="M338.2,98.9V22.2h49v13.5h-32.5v17.6h31.4v13.5h-31.4v18.6h32.5v13.5H338.2z"/>
</g>
<g>
	<path d="M401.5,98.9V42.2h16.3v10.3h0.7c0.7-1.6,1.5-3.1,2.4-4.5c1-1.4,2.1-2.6,3.5-3.7c1.4-1.1,2.9-1.9,4.7-2.5
		c1.8-0.6,3.8-0.9,6.1-0.9c2.7,0,5.2,0.5,7.5,1.4s4.2,2.3,5.8,4.1c1.6,1.8,2.9,4.1,3.8,6.7c0.9,2.6,1.4,5.7,1.4,9.1v36.7h-16.3V64.4
		c0-7.3-3.2-11-9.6-11c-1.2,0-2.5,0.2-3.7,0.5s-2.3,0.8-3.2,1.5c-1,0.7-1.7,1.6-2.3,2.6c-0.5,1-0.8,2.2-0.8,3.6v37.2L401.5,98.9
		L401.5,98.9L401.5,98.9z"/>
</g>
<g>
	<path d="M521.9,104.6c0,6-2.5,10.4-7.6,13.3c-5.1,2.9-13,4.3-23.8,4.3c-5.4,0-9.9-0.3-13.4-0.9s-6.3-1.5-8.4-2.7s-3.6-2.6-4.4-4.2
		s-1.3-3.4-1.3-5.3c0-3.2,1-5.7,2.9-7.3c1.9-1.6,4.6-2.9,8-3.8v-0.7c-2.4-0.7-4.3-1.8-5.8-3.1c-1.4-1.4-2.1-3.3-2.1-5.8
		c0-2.8,0.9-4.8,2.8-6.2c1.9-1.3,4.3-2.3,7.4-3.1v-0.7c-3.4-1.6-6-3.9-7.9-6.8s-2.8-6.5-2.8-10.7c0-3.3,0.6-6.2,1.8-8.7
		c1.2-2.5,2.8-4.6,5-6.3s4.7-3,7.7-3.8c3-0.9,6.4-1.3,10.1-1.3s6.9,0.4,10,1.2v-3c0-2.2,0.8-4,2.3-5.5s3.7-2.2,6.4-2.2h10v11.9
		h-13.6v1c3.1,1.6,5.5,3.8,7.2,6.6c1.7,2.8,2.6,6.2,2.6,10.3c0,3.3-0.6,6.2-1.8,8.7s-2.9,4.6-5.1,6.3c-2.2,1.7-4.8,3-7.9,3.9
		c-3,0.9-6.4,1.3-10.2,1.3c-1.7,0-3.3-0.1-4.8-0.3c-1.5-0.2-3-0.5-4.4-0.8c-0.8,0.4-1.5,1-2,1.6c-0.5,0.7-0.8,1.5-0.8,2.5
		c0,0.9,0.2,1.6,0.7,2.1c0.4,0.5,1,0.9,1.8,1.2c0.8,0.3,1.7,0.4,2.7,0.5s2.1,0.1,3.2,0.1h13c4,0,7.5,0.4,10.3,1.2
		c2.9,0.8,5.2,1.9,7,3.4c1.8,1.5,3.1,3.2,4,5.2C521.5,100,521.9,102.2,521.9,104.6L521.9,104.6z M506.5,105.8c0-1.5-0.6-2.6-1.8-3.5
		c-1.2-0.8-3.4-1.3-6.7-1.3h-19.4c-1.5,1.2-2.2,2.8-2.2,4.6s0.8,3.2,2.3,4.3c1.5,1.1,4,1.7,7.6,1.7h9.6c3.7,0,6.4-0.5,8.1-1.5
		C505.7,109.2,506.5,107.7,506.5,105.8z M490.1,71c3.3,0,5.7-0.8,7.2-2.4s2.3-3.7,2.3-6.2v-2.6c0-2.5-0.8-4.5-2.3-6.2
		c-1.5-1.6-3.9-2.4-7.2-2.4s-5.6,0.8-7,2.4c-1.5,1.6-2.2,3.7-2.2,6.2v2.6c0,2.5,0.7,4.5,2.2,6.2C484.6,70.2,486.9,71,490.1,71z"/>
</g>
<g>
	<path d="M540.4,99.6c-2.1,0-3.5-0.4-4.4-1.3s-1.3-2-1.3-3.2v-1.9c0-1.2,0.4-2.3,1.3-3.2c0.9-0.9,2.4-1.3,4.4-1.3s3.5,0.4,4.4,1.3
		s1.3,2,1.3,3.2V95c0,1.2-0.4,2.3-1.3,3.2C544,99.1,542.5,99.6,540.4,99.6z"/>
</g>
<g>
	<path d="M583.9,98.9l-2.4-9.2H571l-2.4,9.2h-8.3l10.4-38.3h11.6l10.4,38.3H583.9z M576.5,68.5h-0.4L572.3,83h7.9L576.5,68.5z"/>
	<path d="M597.1,98.9v-6.1h8.2V66.7h-8.2v-6.1h24.7v6.1h-8.2v26.1h8.2v6.1C621.8,98.9,597.1,98.9,597.1,98.9z"/>
</g>
<path class="st0" d="M118.2,42c2.4-2.2,3.6-5.6,3.6-10.5V11.7c0-0.7-0.1-1.3-0.2-2c-0.9-4.8-4.7-8.5-9.5-9.2
	c-0.5-0.1-1.1-0.1-1.6-0.1h-20c-4.8,0-8.3,1.2-10.5,3.7c-2.3,2.3-3.4,5.3-3.3,9v8.5c-0.5-0.1-1.1-0.1-1.7-0.1
	c-3.8,0-6.8,1.3-9.1,3.9c-2.4,2.7-3.9,6.5-4.5,11.4h-0.9c-0.6-4.8-2.1-8.7-4.5-11.4c-2.2-2.6-5.2-3.9-9.1-3.9c-0.6,0-1.2,0-1.7,0.1
	V13c0.1-3.6-1-6.6-3.3-9c-2.1-2.5-5.6-3.7-10.5-3.7h-20c-0.6,0-1.1,0-1.6,0.1C4.9,1.2,1,4.9,0.2,9.7C0.1,10.3,0,11,0,11.7v19.8
	c0,4.8,1.2,8.2,3.6,10.5c2.4,2.2,5.3,3.4,9,3.4h8.9c-0.1,0.6-0.1,1.2-0.1,1.8c0,3.8,1.3,6.8,3.9,9.3c2.7,2.2,6.5,3.7,11.4,4.3v0.9
	c-4.9,0.6-8.8,2.1-11.4,4.4c-2.6,2.2-3.9,5.3-3.9,9.2c0,0.6,0,1.2,0.1,1.8h-8.8c-3.6,0-6.6,1.1-9,3.4C1.2,82.6,0,86.1,0,90.9v19.7
	c0,0.8,0.1,1.5,0.2,2.2c0.5,2.3,1.6,4.4,3.3,5.9c1.6,1.6,3.7,2.6,6,3c0.6,0.1,1.2,0.1,1.8,0.1h19.9c4.8,0,8.2-1.2,10.5-3.6
	c2.2-2.3,3.4-5.3,3.4-9v-8.5c0.6,0,1.1,0.1,1.7,0.1c3.8,0,6.8-1.3,9.3-3.9c2.2-2.7,3.7-6.5,4.3-11.4h0.9c0.6,4.8,2.1,8.7,4.3,11.4
	c2.4,2.6,5.4,3.9,9.3,3.9c0.6,0,1.1-0.1,1.7-0.1v8.5c0,3.6,1.2,6.6,3.4,9s5.6,3.6,10.5,3.6h19.9c0.6,0,1.2-0.1,1.8-0.1
	c4.6-0.8,8.4-4.3,9.3-8.9c0.1-0.7,0.2-1.5,0.2-2.2V90.9c0-4.7-1.2-8.2-3.7-10.4c-2.3-2.3-5.3-3.4-9-3.4h-8.8
	c0.1-0.6,0.1-1.2,0.1-1.8c0-3.8-1.3-6.9-3.9-9.2c-2.6-2.3-6.4-3.8-11.4-4.4v-0.9c4.8-0.6,8.7-2.1,11.4-4.3c2.6-2.4,3.9-5.4,3.9-9.3
	c0-0.6,0-1.2-0.1-1.8h8.9C112.9,45.4,115.8,44.2,118.2,42z M29.6,16.3c0,2.8-0.3,5-0.9,6.8c-0.9,2-2.4,3.7-4.2,4.9
	c-1.8,1.1-3.8,1.8-6.1,1.8H7.2V7.5h22.4V16.3z M29.7,99.4l-0.1,8.8H7.2V85.9h8.7c3.6,0,6.4,0.5,8.4,1.6c0.1,0.1,0.3,0.2,0.4,0.2
	c1.6,1.1,3,2.7,3.9,4.5c0.7,1.5,1.1,3.2,1.1,4.9V99.4z M52.2,69.4c0,0.7,0,1.3-0.1,2c0,0.3,0,0.7-0.1,1c-0.1,0.6-0.1,1.2-0.2,1.8
	c0,0.3-0.1,0.5-0.1,0.8c0,0.2-0.1,0.4-0.1,0.6c-1.1,6.5-3.9,9.8-8.3,9.8c-0.7,0-1.4-0.1-2.1-0.2c0,0,0,0-0.1,0
	c-0.7-0.1-1.4-0.3-2.1-0.6c-1.3-0.6-2.7-1.5-4.4-3c0,0,0,0-0.1,0l-0.1-0.1c-0.2-0.2-0.3-0.4-0.5-0.6c-1.5-1.8-2.6-3.3-3.2-4.7
	c-0.5-1.2-0.8-2.6-0.8-4c0-3.1,1.6-5.5,4.8-6.9h0.1c2.8-1.3,6.9-1.9,12.1-1.9h5.3V69.4z M52.2,52.5h-5.1c-11.3,0-17-2.9-17-8.9
	c0-1.4,0.3-2.8,0.8-4c0.6-1.4,1.7-2.9,3.2-4.7c0.2-0.2,0.3-0.4,0.5-0.6c1.7-1.5,3.2-2.5,4.5-3.1c1.4-0.6,2.7-0.8,4.2-0.8
	c5.9,0,8.9,5.7,8.9,17V52.5z M85.3,97.1c0-1.8,0.4-3.4,1.1-4.9c0.9-1.8,2.2-3.4,3.9-4.5c0.1-0.1,0.3-0.2,0.4-0.2
	c2-1.1,4.8-1.6,8.4-1.6h8.8v22.3H85.4l-0.1-8.8V97.1z M84.1,76c-0.6,1.4-1.7,2.9-3.2,4.7c-0.2,0.2-0.3,0.4-0.5,0.6l-0.1,0.1
	c0,0,0,0-0.1,0c-1.6,1.4-3.1,2.4-4.4,3c-0.7,0.3-1.4,0.5-2.1,0.6c0,0,0,0-0.1,0c-0.7,0.1-1.4,0.2-2.1,0.2c-4.4,0-7.2-3.2-8.3-9.8
	c0-0.2-0.1-0.4-0.1-0.6c0-0.3-0.1-0.5-0.1-0.8c-0.1-0.6-0.1-1.2-0.2-1.8c0-0.3,0-0.6-0.1-1c0-0.6-0.1-1.3-0.1-2V63h5.1
	c5.2,0,9.3,0.6,12.1,1.9h0.1c3.4,1.7,5,4,5,7.1C84.9,73.4,84.6,74.8,84.1,76z M67.9,52.6h-5.1v-5.1c0-11.4,3-17,8.9-17
	c1.5,0,2.8,0.2,4.2,0.8c1.3,0.6,2.8,1.6,4.5,3.1c0.2,0.2,0.3,0.4,0.5,0.6c1.5,1.8,2.6,3.3,3.2,4.7c0.5,1.2,0.8,2.6,0.8,4
	C84.9,49.6,79.2,52.6,67.9,52.6z M107.9,29.7H96.7c-2.2,0-4.3-0.7-6.1-1.8c-1.9-1.2-3.3-2.9-4.2-4.9c-0.6-1.8-0.9-4.1-0.9-6.8V7.5
	h22.4V29.7z"/>
</svg>
